<svg id="Capa_1" enable-background="new 0 0 512 512" height="512" viewBox="0 0 512 512" width="512" xmlns="http://www.w3.org/2000/svg"><g><g><g><g><path d="m448.28 348.582h-42.422v32.564h42.422c8.993 0 16.282-7.29 16.282-16.282s-7.289-16.282-16.282-16.282z" fill="#64b9fc"/><path d="m464.562 364.861c0 8.999-7.285 16.284-16.284 16.284h-25.121c8.999 0 16.284-7.285 16.284-16.284 0-8.99-7.285-16.284-16.284-16.284h25.121c8.999 0 16.284 7.295 16.284 16.284z" fill="#31a7fb"/></g><g><path d="m462.267 318.526h-56.409v32.564h56.409c8.992 0 16.282-7.29 16.282-16.282s-7.289-16.282-16.282-16.282z" fill="#8dcafc"/><path d="m478.549 334.805c0 8.999-7.285 16.284-16.284 16.284h-25.121c8.999 0 16.284-7.285 16.284-16.284 0-8.99-7.285-16.284-16.284-16.284h25.121c8.999 0 16.284 7.295 16.284 16.284z" fill="#64b9fc"/></g><g><path d="m482.07 288.47h-76.212v32.564h76.212c8.993 0 16.282-7.29 16.282-16.282s-7.29-16.282-16.282-16.282z" fill="#b5dbfd"/><path d="m498.352 304.749c0 8.999-7.285 16.284-16.284 16.284h-25.121c8.999 0 16.284-7.285 16.284-16.284 0-8.99-7.285-16.284-16.284-16.284h25.121c8.999 0 16.284 7.295 16.284 16.284z" fill="#8dcafc"/></g><g><g><path d="m393.8 393.912c-8.671 0-15.701-7.029-15.701-15.701v-71.809c0-25.162 20.471-45.633 45.633-45.633h72.565c8.671 0 15.701 7.029 15.701 15.701s-7.029 15.701-15.701 15.701h-72.565c-7.847 0-14.231 6.384-14.231 14.232v71.809c0 8.671-7.029 15.7-15.701 15.7z" fill="#fdf6ed"/></g><g><path d="m512 276.47c0 8.676-7.034 15.701-15.701 15.701h-28.71c8.667 0 15.701-7.025 15.701-15.701s-7.034-15.701-15.701-15.701h28.71c8.667 0 15.701 7.025 15.701 15.701z" fill="#f9e1c2"/></g></g></g><g><g><path d="m63.72 348.582h42.422v32.564h-42.422c-8.993 0-16.282-7.29-16.282-16.282s7.289-16.282 16.282-16.282z" fill="#64b9fc"/><path d="m47.438 364.861c0 8.999 7.285 16.284 16.284 16.284h25.121c-8.999 0-16.284-7.285-16.284-16.284 0-8.99 7.285-16.284 16.284-16.284h-25.121c-8.999 0-16.284 7.295-16.284 16.284z" fill="#31a7fb"/></g><g><path d="m49.733 318.526h56.409v32.564h-56.409c-8.992 0-16.282-7.29-16.282-16.282s7.289-16.282 16.282-16.282z" fill="#8dcafc"/><path d="m33.451 334.805c0 8.999 7.285 16.284 16.284 16.284h25.121c-8.999 0-16.284-7.285-16.284-16.284 0-8.99 7.285-16.284 16.284-16.284h-25.121c-8.999 0-16.284 7.295-16.284 16.284z" fill="#64b9fc"/></g><g><path d="m29.93 288.47h76.212v32.564h-76.212c-8.993 0-16.282-7.29-16.282-16.282s7.29-16.282 16.282-16.282z" fill="#b5dbfd"/><path d="m13.648 304.749c0 8.999 7.285 16.284 16.284 16.284h25.121c-8.999 0-16.284-7.285-16.284-16.284 0-8.99 7.285-16.284 16.284-16.284h-25.121c-8.999 0-16.284 7.295-16.284 16.284z" fill="#8dcafc"/></g><g><g><path d="m118.2 393.912c8.671 0 15.701-7.029 15.701-15.701v-71.809c0-25.162-20.471-45.633-45.632-45.633h-72.566c-8.671 0-15.701 7.029-15.701 15.701 0 8.671 7.029 15.701 15.701 15.701h72.565c7.847 0 14.231 6.384 14.231 14.232v71.809c0 8.671 7.029 15.7 15.701 15.7z" fill="#fdf6ed"/></g><g><path d="m0 276.47c0 8.676 7.034 15.701 15.701 15.701h28.71c-8.667 0-15.701-7.025-15.701-15.701s7.034-15.701 15.701-15.701h-28.71c-8.667 0-15.701 7.025-15.701 15.701z" fill="#f9e1c2"/></g></g></g></g><g><path d="m386.862 225.489c20.209 0 37.395-16.531 37.267-36.74-.051-7.973-2.662-15.334-7.048-21.314-1.507-2.055-1.173-4.886.63-6.686 6.619-6.606 10.716-15.736 10.716-25.826 0-13.389-7.211-25.09-17.96-31.442-2.119-1.252-3.042-3.884-2.193-6.194 1.511-4.11 2.305-8.566 2.223-13.22-.345-19.544-16.452-35.582-35.997-35.845-4.318-.058-8.466.636-12.322 1.958-3.244 1.112-6.685-1.245-6.77-4.673-.01-.42-.028-.842-.053-1.265-1.129-19.198-17.348-34.38-36.579-34.308-9.145.034-17.493 3.436-23.878 9.025-2.389 2.092-6.091 1.535-7.749-1.174-6.412-10.479-17.962-17.473-31.149-17.473s-24.737 6.995-31.151 17.475c-1.658 2.709-5.359 3.266-7.749 1.174-6.379-5.584-14.715-8.983-23.849-9.025-19.237-.087-35.471 15.094-36.606 34.298-.025.427-.043.853-.054 1.277-.086 3.428-3.527 5.783-6.77 4.671-3.856-1.322-8.003-2.016-12.322-1.958-19.546.263-35.652 16.3-35.997 35.845-.082 4.654.712 9.109 2.223 13.22.849 2.31-.074 4.942-2.193 6.194-10.748 6.352-17.96 18.052-17.96 31.442 0 10.09 4.098 19.22 10.716 25.826 1.803 1.8 2.137 4.631.63 6.686-4.386 5.98-6.997 13.342-7.048 21.314-.128 20.208 17.058 36.74 37.267 36.74h261.725z" fill="#fcd79f"/><path d="m416.083 166.138c5.304 6.598 8.372 15.077 8.019 24.276-.757 19.714-17.465 35.075-37.193 35.075h-40.572c20.16 0 36.497-16.347 36.497-36.507 0-8.637-3.005-16.574-8.029-22.825-1.035-1.288-.806-3.151.415-4.264 7.323-6.673 11.914-16.283 11.914-26.97 0-13.947-7.831-26.068-19.327-32.211-1.427-.762-2.027-2.454-1.404-3.946 1.896-4.54 2.911-9.542 2.803-14.796-.401-19.57-16.598-35.575-36.171-35.747-5.208-.046-10.159 1.002-14.649 2.923-2.115.905-4.403-.708-4.296-3.006.026-.563.04-1.13.04-1.701 0-12.494-6.282-23.525-15.859-30.106 6.826-4.686 15.32-7.126 24.418-6.212 19.293 1.939 33.429 18.356 32.7 37.732-.004.101-.008.201-.013.302-.105 2.292 2.183 3.899 4.292 2.996 4.536-1.943 9.542-2.994 14.809-2.927 19.553.249 35.67 16.292 36.017 35.843.093 5.224-.916 10.197-2.807 14.713-.622 1.484-.025 3.168 1.395 3.925 11.51 6.141 19.348 18.266 19.348 32.219 0 10.696-4.608 20.314-11.937 26.989-1.21 1.102-1.436 2.949-.41 4.225z" fill="#fac574"/><path d="m339.28 291.253c-5.666 17.462-53.518 143.422-257.381 158.164v-57.217c0-56.052 45.421-101.504 101.473-101.504h145.256c3.595.001 7.149.186 10.652.557z" fill="#f69583"/><path d="m339.28 291.253c-2.473 7.634-13.001 35.964-41.084 66.694-13.238 5.398-27.526 8.221-42.196 8.221-29.082 0-56.65-11.105-77.604-31.266-11.662-11.219-20.604-24.58-26.434-39.24 9.89-3.224 20.449-4.965 31.41-4.965h145.256c3.595 0 7.149.185 10.652.556z" fill="#ea806f"/><path d="m430.103 392.195v109.488c0 5.523-4.477 10-10 10h-328.206c-5.523 0-10-4.477-10-10v-60.855c209.724-12.773 246.729-150.13 246.729-150.13 56.05 0 101.477 45.447 101.477 101.497z" fill="#b5dbfd"/><path d="m430.101 392.198v109.491c0 5.523-4.477 10-10 10h-29.507v-119.491c0-42.958-26.682-79.684-64.376-94.499 1.721-4.45 2.411-7.005 2.411-7.005 56.051 0 101.472 45.452 101.472 101.504z" fill="#8dcafc"/><path d="m360.038 295.659c-5.831 14.659-14.773 28.021-26.434 39.24-14.649 14.093-32.543 23.766-51.921 28.299 37.313-36.736 46.945-72.504 46.945-72.504 10.961 0 21.52 1.741 31.41 4.965z" fill="#8dcafc"/><g><g><g><g><circle cx="356.722" cy="223.634" fill="#f69583" r="30.412"/></g><g><circle cx="155.278" cy="223.634" fill="#f69583" r="30.412"/></g></g><g><path d="m351.766 142.183-1.957 50.361-2.541 65.218c-1.9 49.033-42.2 87.8-91.268 87.8s-89.368-38.767-91.268-87.8l-1.705-43.86-2.793-71.719z" fill="#ffbfb0"/></g></g><g><path d="m256 268.365c-4.268 0-7.726-3.459-7.726-7.726v-54.73c0-4.267 3.459-7.726 7.726-7.726s7.726 3.459 7.726 7.726v54.73c0 4.267-3.458 7.726-7.726 7.726z" fill="#f69583"/></g><g><g><path d="m218.372 239.375c-1.04 0-2.096-.211-3.109-.657-4.859-2.138-11.221-2.138-16.08 0-3.905 1.72-8.465-.054-10.184-3.959s.053-8.465 3.959-10.184c4.375-1.926 9.309-2.944 14.266-2.944s9.89 1.018 14.266 2.944c3.905 1.719 5.678 6.279 3.959 10.184-1.274 2.893-4.107 4.616-7.077 4.616z" fill="#f69583"/></g><g><path d="m293.628 239.375c-2.971 0-5.802-1.723-7.075-4.616-1.719-3.905.053-8.465 3.959-10.184 4.375-1.926 9.309-2.944 14.266-2.944 4.956 0 9.889 1.018 14.266 2.944 3.905 1.718 5.679 6.278 3.961 10.184-1.719 3.905-6.278 5.68-10.184 3.96-4.863-2.14-11.225-2.138-16.082-.001-1.015.445-2.072.657-3.111.657z" fill="#f69583"/></g></g><g><path d="m256 314.181c-12.731 0-23.368-9.538-24.742-22.185-.461-4.242 2.604-8.055 6.846-8.516 4.253-.459 8.055 2.605 8.516 6.846.521 4.79 4.553 8.402 9.38 8.402s8.859-3.612 9.38-8.402c.461-4.242 4.265-7.308 8.516-6.846 4.242.461 7.307 4.274 6.846 8.516-1.374 12.647-12.011 22.185-24.742 22.185z" fill="#f69583"/></g></g><g><path d="m376.964 302.925c-1.391 9.601-4.77 28.206-12.269 50.788-9.993 30.061-29.515 73.06-65.808 107.221-1.494 1.411-3.4 2.102-5.295 2.102-2.06 0-4.11-.814-5.625-2.431-2.926-3.101-2.781-7.994.33-10.92 59.977-56.454 72.308-139.806 73.946-153.281 5.109 1.792 10.034 3.976 14.721 6.521z" fill="#8dcafc"/></g><g><path d="m380.178 455.031c-19.44 28.34-41.589 45.936-59.761 56.65h-38.106c9.333-2.637 51.849-16.885 85.124-65.386 2.421-3.523 7.222-4.419 10.745-1.999 3.512 2.411 4.409 7.222 1.998 10.735z" fill="#8dcafc"/></g><g><path d="m214.556 473.265c-51.911 16.679-98.187 19.079-120.541 19.079-5.687 0-9.828-.155-12.115-.268v-15.484c7.644.402 64.057 2.472 127.938-18.038 4.049-1.298 8.406.937 9.715 4.996 1.308 4.059-.928 8.417-4.997 9.715z" fill="#8dcafc"/></g><path d="m145.598 132.69c0 20.779 16.845 37.624 37.624 37.624 11.602 0 21.973-5.253 28.872-13.509 2.547-3.048 7.374-2.274 8.803 1.433 5.434 14.088 19.098 24.083 35.103 24.083s29.669-9.995 35.103-24.083c1.43-3.706 6.256-4.481 8.803-1.433 6.9 8.256 17.271 13.509 28.872 13.509 20.779 0 37.624-16.845 37.624-37.624z" fill="#fcd79f"/><g><path d="m381.919 133.316c0 21.531-13.063 40.064-31.678 48.089l.7-18.028c9.395-6.696 15.525-17.678 15.525-30.061 0-4.265 3.462-7.726 7.726-7.726 4.276-.001 7.727 3.461 7.727 7.726z" fill="#fac574"/></g><g><path d="m161.059 163.397.7 18.028c-18.636-8.025-31.709-26.579-31.709-48.12 0-4.275 3.461-7.726 7.726-7.726s7.726 3.451 7.726 7.726c.001 12.404 6.151 23.396 15.557 30.092z" fill="#fac574"/></g></g></g></svg>